# xmcd CD database file
#
# Track frame offsets:
#	150
#	18344
#	37319
#	58116
#	80125
#	101552
#	123047
#	144546
#	163338
#	187540
#	204360
#	230344
#	253871
#
# Disc length: 3773 seconds
#
# Revision: 4
# Processed by: cddbd v1.5.2PL0 Copyright (c) Steve Scherf et al.
# Submitted via: CDex 1.70beta3
#
DISCID=b00ebb0d
DTITLE=福山 雅治 - Dear MAGNUM COLLECTION 1999 (Disc2)
DYEAR=1999
DGENRE=Rock
TTITLE0=HELLO
TTITLE1=Message
TTITLE2=今このひとときが遠い夢のように
TTITLE3=Heart
TTITLE4=you
TTITLE5=Like A Hurricane
TTITLE6=巻き戻した夏
TTITLE7=Peach!!
TTITLE8=Squall
TTITLE9=DEAD BODY(Live/’95 Style)
TTITLE10=BLOOD(Live/’95 Style)
TTITLE11=Good Luck(Live/’95 Style)
TTITLE12=SORRY BABY(Live/’95 Style)~もっとそばにきて(Santa Monica Blvd./’99 Style)
EXTD=YEAR: 1999
EXTT0=
EXTT1=
EXTT2=
EXTT3=
EXTT4=
EXTT5=
EXTT6=
EXTT7=
EXTT8=
EXTT9=
EXTT10=
EXTT11=
EXTT12=
PLAYORDER=
